<svg id="レイヤー_1" data-name="レイヤー 1" xmlns="http://www.w3.org/2000/svg" xmlns:xlink="http://www.w3.org/1999/xlink" viewBox="0 0 238 88"><defs><style>.cls-1{fill:#182045;}.cls-2,.cls-4{fill:none;stroke-miterlimit:10;}.cls-2{stroke:#182045;}.cls-3{fill:url(#名称未設定グラデーション_141);}.cls-4{stroke:#4b52a2;}.cls-5{fill:#6f7453;}.cls-6{fill:#231815;}</style><radialGradient id="名称未設定グラデーション_141" cx="115.5" cy="40.5" r="86.1" gradientUnits="userSpaceOnUse"><stop offset="0" stop-color="#fff68a"/><stop offset="1" stop-color="#4cb267"/></radialGradient></defs><rect class="cls-1" x="7.5" y="7.5" width="230" height="80"/><rect class="cls-2" x="7.5" y="7.5" width="230" height="80"/><rect class="cls-3" x="0.5" y="0.5" width="230" height="80"/><rect class="cls-4" x="0.5" y="0.5" width="230" height="80"/><path class="cls-5" d="M47.16,21.26c2.16-2,6.34-3.65,10.75-3.65,7.16,0,10.56,4.13,10.56,8.6,0,4.22-2.35,7.53-7.58,8.88v.09c4.9.68,9,3.6,9,9.27,0,4.75-3.84,10.42-13.29,10.42-4.52,0-8.21-1.25-10.76-3.36l1.49-3.12a14.58,14.58,0,0,0,9.27,3.16c6.43,0,8.93-4.12,8.93-7.29,0-5.67-5.43-7.2-10.61-7.2H51.77V33.89h3.17c4.6,0,9.31-2.45,9.31-7,0-3.22-2.3-5.95-7-5.95a13.9,13.9,0,0,0-8.69,3.26Z" transform="translate(0.5 0.5)"/><path class="cls-5" d="M86.09,18.14a58.3,58.3,0,0,1,9.21-.77c14.69,0,18.92,8.69,18.92,17.67,0,5.81-1.54,10.75-5,14.35C106,52.71,100.68,54.53,94,54.53a66.36,66.36,0,0,1-7.92-.38Zm4,32.93a31.79,31.79,0,0,0,4.66.24c9.89,0,15.31-5.61,15.31-16.08,0-9.5-5.09-14.64-14.59-14.64a28.65,28.65,0,0,0-5.38.48Z" transform="translate(0.5 0.5)"/><path class="cls-5" d="M144.26,53.14a22.56,22.56,0,0,1-9.12,1.63c-9.4,0-17-6.1-17-18.48,0-11.81,7.34-19.16,18-19.16a18.26,18.26,0,0,1,8.06,1.49l-1,3.36a16,16,0,0,0-6.91-1.49c-8.31,0-14,5.57-14,15.65,0,9.6,5.18,15.27,13.73,15.27a18,18,0,0,0,7.34-1.49Z" transform="translate(0.5 0.5)"/><path class="cls-5" d="M176.14,52.75a29.79,29.79,0,0,1-10.42,1.88C151.37,54.63,148,43.92,148,36.19c0-11.13,7.25-18.86,18.72-18.86a21.35,21.35,0,0,1,8.45,1.53l-1.06,3.32a17.16,17.16,0,0,0-7.49-1.49c-8.64,0-14.45,5.57-14.45,15.26,0,9.89,5.53,15.41,13.88,15.41a14.07,14.07,0,0,0,6.19-1V38.59h-7.39V35.38h11.33Z" transform="translate(0.5 0.5)"/><path class="cls-6" d="M51.16,25.26c2.16-2,6.34-3.65,10.75-3.65,7.16,0,10.56,4.13,10.56,8.6,0,4.22-2.35,7.53-7.58,8.88v.09c4.9.68,9,3.6,9,9.27,0,4.75-3.84,10.42-13.29,10.42-4.52,0-8.21-1.25-10.76-3.36l1.49-3.12a14.58,14.58,0,0,0,9.27,3.16c6.43,0,8.93-4.12,8.93-7.29,0-5.67-5.43-7.2-10.61-7.2H55.77V37.89h3.17c4.6,0,9.31-2.45,9.31-7,0-3.22-2.3-5.95-7-5.95a13.9,13.9,0,0,0-8.69,3.26Z" transform="translate(0.5 0.5)"/><path class="cls-6" d="M90.09,22.14a58.3,58.3,0,0,1,9.21-.77c14.69,0,18.92,8.69,18.92,17.67,0,5.81-1.54,10.75-5,14.35C110,56.71,104.68,58.53,98,58.53a66.36,66.36,0,0,1-7.92-.38Zm4,32.93a31.79,31.79,0,0,0,4.66.24c9.89,0,15.31-5.61,15.31-16.08,0-9.5-5.09-14.64-14.59-14.64a28.65,28.65,0,0,0-5.38.48Z" transform="translate(0.5 0.5)"/><path class="cls-6" d="M148.26,57.14a22.56,22.56,0,0,1-9.12,1.63c-9.4,0-17-6.1-17-18.48,0-11.81,7.34-19.16,18-19.16a18.26,18.26,0,0,1,8.06,1.49l-1,3.36a16,16,0,0,0-6.91-1.49c-8.31,0-14,5.57-14,15.65,0,9.6,5.18,15.27,13.73,15.27a18,18,0,0,0,7.34-1.49Z" transform="translate(0.5 0.5)"/><path class="cls-6" d="M180.14,56.75a29.79,29.79,0,0,1-10.42,1.88C155.37,58.63,152,47.92,152,40.19c0-11.13,7.25-18.86,18.72-18.86a21.35,21.35,0,0,1,8.45,1.53l-1.06,3.32a17.16,17.16,0,0,0-7.49-1.49c-8.64,0-14.45,5.57-14.45,15.26,0,9.89,5.53,15.41,13.88,15.41a14.07,14.07,0,0,0,6.19-1V42.59h-7.39V39.38h11.33Z" transform="translate(0.5 0.5)"/></svg>