<svg id="レイヤー_1" data-name="レイヤー 1" xmlns="http://www.w3.org/2000/svg" xmlns:xlink="http://www.w3.org/1999/xlink" viewBox="0 0 238 88"><defs><style>.cls-1{fill:#182045;}.cls-2,.cls-4{fill:none;stroke-miterlimit:10;}.cls-2{stroke:#182045;}.cls-3{fill:url(#名称未設定グラデーション_141);}.cls-4{stroke:#4b52a2;}.cls-5{fill:#797b58;}.cls-6{fill:#231815;}</style><radialGradient id="名称未設定グラデーション_141" cx="115.5" cy="40.5" r="86.1" gradientUnits="userSpaceOnUse"><stop offset="0" stop-color="#fff68a"/><stop offset="1" stop-color="#4cb267"/></radialGradient></defs><rect class="cls-1" x="7.5" y="7.5" width="230" height="80"/><rect class="cls-2" x="7.5" y="7.5" width="230" height="80"/><rect class="cls-3" x="0.5" y="0.5" width="230" height="80"/><rect class="cls-4" x="0.5" y="0.5" width="230" height="80"/><path class="cls-5" d="M7.45,23.79H26.71l.18-.11L29,25.55a.71.71,0,0,1-.37.33c-2.45,13.53-7.72,20.59-17,24.76a15.67,15.67,0,0,0-1.36-2.12C19.05,44.67,24.13,38,26.1,26.27H7.45Zm23.07-6.44c1.82,0,3.3,1.76,3.3,4s-1.48,3.92-3.3,3.92a3.66,3.66,0,0,1-3.33-3.92C27.19,19,28.73,17.35,30.52,17.35Zm2.3,4a2.57,2.57,0,0,0-2.3-2.78,2.59,2.59,0,0,0-2.33,2.78,2.6,2.6,0,0,0,2.33,2.77A2.58,2.58,0,0,0,32.82,21.31Z" transform="translate(0.5 0.5)"/><path class="cls-5" d="M59.5,24.37V48.12H57.32V45.86H40.64v2.33H38.52V24.37ZM57.32,43.44V26.78H40.64V43.44Z" transform="translate(0.5 0.5)"/><path class="cls-5" d="M89.72,26.6a1.84,1.84,0,0,1-.46.54c-3.21,11.91-8.17,19.11-16.38,24.08a8,8,0,0,0-1.54-2C79.12,44.74,84,37.83,86.57,28H75.88a34.3,34.3,0,0,1-6.69,8.78A10.46,10.46,0,0,0,67.5,35.2c4.11-3.67,7.53-9.36,9.59-15.77l2.85.94a.74.74,0,0,1-.85.47c-.6,1.62-1.3,3.35-2,4.79H87.63l.36-.22ZM86,18.32a25.71,25.71,0,0,1,4,5.11l-1.12,1.15a24.76,24.76,0,0,0-3.91-5.11Zm4.39-1.05a24.67,24.67,0,0,1,4,5.12L93.2,23.5a24.05,24.05,0,0,0-3.91-5.07Z" transform="translate(0.5 0.5)"/><path class="cls-5" d="M120.91,31.13a.72.72,0,0,1-.4.36C118,42.36,113,47.65,103.92,50.64a10.79,10.79,0,0,0-1.27-2.09c8.23-2.44,13.35-7.48,15.26-15.83h-20V30.27h20.95l.3-.22Zm-2.85-7.7H100.8V21.05h17.26Z" transform="translate(0.5 0.5)"/><path class="cls-5" d="M130,42.51c6.66.9,14.44,3,19.2,5.18l-.91,2.52c-4.3-2.12-12.35-4.39-19-5.33Zm2.42-11a75.45,75.45,0,0,1,14.63,3.31l-.7,2.52a65,65,0,0,0-14.56-3.38Zm.13-11.12a68.73,68.73,0,0,1,15.92,3.85l-.88,2.52c-4.18-1.87-10.59-3.27-15.74-4Z" transform="translate(0.5 0.5)"/><path class="cls-5" d="M159.7,22.35a35.07,35.07,0,0,1,9,4.9l-1.15,2.26a36.54,36.54,0,0,0-8.84-5Zm-.12,24.94c10.74-4,17.89-11.12,21.52-21.09a12.07,12.07,0,0,0,2,1.48,37.13,37.13,0,0,1-21.44,21.59,1.21,1.21,0,0,1-.42.83Z" transform="translate(0.5 0.5)"/><path class="cls-5" d="M210.84,26.6a1.84,1.84,0,0,1-.46.54c-3.21,11.91-8.17,19.11-16.38,24.08a8,8,0,0,0-1.54-2c7.78-4.5,12.66-11.41,15.23-21.2H197a34.52,34.52,0,0,1-6.69,8.78,10.14,10.14,0,0,0-1.7-1.62c4.12-3.67,7.54-9.36,9.6-15.77l2.85.94a.74.74,0,0,1-.85.47c-.61,1.62-1.3,3.35-2,4.79h10.54l.36-.22Zm-3.76-8.28a25.71,25.71,0,0,1,4,5.11l-1.12,1.15A24.76,24.76,0,0,0,206,19.47Zm4.39-1.05a24.67,24.67,0,0,1,4,5.12l-1.12,1.11a24.05,24.05,0,0,0-3.91-5.07Z" transform="translate(0.5 0.5)"/><path class="cls-6" d="M10.45,26.79H29.71l.18-.11L32,28.55a.71.71,0,0,1-.37.33c-2.45,13.53-7.72,20.59-17,24.76a15.67,15.67,0,0,0-1.36-2.12C22.05,47.67,27.13,41,29.1,29.27H10.45Zm23.07-6.44c1.82,0,3.3,1.76,3.3,4s-1.48,3.92-3.3,3.92a3.66,3.66,0,0,1-3.33-3.92C30.19,22,31.73,20.35,33.52,20.35Zm2.3,4a2.57,2.57,0,0,0-2.3-2.78,2.59,2.59,0,0,0-2.33,2.78,2.6,2.6,0,0,0,2.33,2.77A2.58,2.58,0,0,0,35.82,24.31Z" transform="translate(0.5 0.5)"/><path class="cls-6" d="M62.5,27.37V51.12H60.32V48.86H43.64v2.33H41.52V27.37ZM60.32,46.44V29.78H43.64V46.44Z" transform="translate(0.5 0.5)"/><path class="cls-6" d="M92.72,29.6a1.84,1.84,0,0,1-.46.54c-3.21,11.91-8.17,19.11-16.38,24.08a8,8,0,0,0-1.54-2C82.12,47.74,87,40.83,89.57,31H78.88a34.3,34.3,0,0,1-6.69,8.78A10.46,10.46,0,0,0,70.5,38.2c4.11-3.67,7.53-9.36,9.59-15.77l2.85.94a.74.74,0,0,1-.85.47c-.6,1.62-1.3,3.35-2,4.79H90.63l.36-.22ZM89,21.32a25.71,25.71,0,0,1,4,5.11l-1.12,1.15a24.76,24.76,0,0,0-3.91-5.11Zm4.39-1.05a24.67,24.67,0,0,1,4,5.12L96.2,26.5a24.05,24.05,0,0,0-3.91-5.07Z" transform="translate(0.5 0.5)"/><path class="cls-6" d="M123.91,34.13a.72.72,0,0,1-.4.36C121,45.36,116,50.65,106.92,53.64a10.79,10.79,0,0,0-1.27-2.09c8.23-2.44,13.35-7.48,15.26-15.83h-20V33.27h20.95l.3-.22Zm-2.85-7.7H103.8V24.05h17.26Z" transform="translate(0.5 0.5)"/><path class="cls-6" d="M133,45.51c6.66.9,14.44,3,19.2,5.18l-.91,2.52c-4.3-2.12-12.35-4.39-19-5.33Zm2.42-11a75.45,75.45,0,0,1,14.63,3.31l-.7,2.52a65,65,0,0,0-14.56-3.38Zm.13-11.12a68.73,68.73,0,0,1,15.92,3.85l-.88,2.52c-4.18-1.87-10.59-3.27-15.74-4Z" transform="translate(0.5 0.5)"/><path class="cls-6" d="M162.7,25.35a35.07,35.07,0,0,1,9,4.9l-1.15,2.26a36.54,36.54,0,0,0-8.84-5Zm-.12,24.94c10.74-4,17.89-11.12,21.52-21.09a12.07,12.07,0,0,0,2,1.48,37.13,37.13,0,0,1-21.44,21.59,1.21,1.21,0,0,1-.42.83Z" transform="translate(0.5 0.5)"/><path class="cls-6" d="M213.84,29.6a1.84,1.84,0,0,1-.46.54c-3.21,11.91-8.17,19.11-16.38,24.08a8,8,0,0,0-1.54-2c7.78-4.5,12.66-11.41,15.23-21.2H200a34.52,34.52,0,0,1-6.69,8.78,10.14,10.14,0,0,0-1.7-1.62c4.12-3.67,7.54-9.36,9.6-15.77l2.85.94a.74.74,0,0,1-.85.47c-.61,1.62-1.3,3.35-2,4.79h10.54l.36-.22Zm-3.76-8.28a25.71,25.71,0,0,1,4,5.11l-1.12,1.15A24.76,24.76,0,0,0,209,22.47Zm4.39-1.05a24.67,24.67,0,0,1,4,5.12l-1.12,1.11a24.05,24.05,0,0,0-3.91-5.07Z" transform="translate(0.5 0.5)"/></svg>