<svg id="レイヤー_1" data-name="レイヤー 1" xmlns="http://www.w3.org/2000/svg" xmlns:xlink="http://www.w3.org/1999/xlink" viewBox="0 0 238 88"><defs><style>.cls-1{fill:#182045;}.cls-2,.cls-4{fill:none;stroke-miterlimit:10;}.cls-2{stroke:#182045;}.cls-3{fill:url(#名称未設定グラデーション_141);}.cls-4{stroke:#4b52a2;}.cls-5{fill:#828a56;}.cls-6{fill:#231815;}</style><radialGradient id="名称未設定グラデーション_141" cx="115.5" cy="40.5" r="86.1" gradientUnits="userSpaceOnUse"><stop offset="0" stop-color="#fff68a"/><stop offset="1" stop-color="#4cb267"/></radialGradient></defs><rect class="cls-1" x="7.5" y="7.5" width="230" height="80"/><rect class="cls-2" x="7.5" y="7.5" width="230" height="80"/><rect class="cls-3" x="0.5" y="0.5" width="230" height="80"/><rect class="cls-4" x="0.5" y="0.5" width="230" height="80"/><path class="cls-5" d="M25.19,28.8a.54.54,0,0,1-.45.2.72.72,0,0,1-.24,0,59.43,59.43,0,0,1-6.84,5.74,5.54,5.54,0,0,1,.57.26.59.59,0,0,1-.53.31V48.17H16V35.84a68.87,68.87,0,0,1-9.14,5.35,8,8,0,0,0-1-1.32c6.55-3,13.73-8.16,17.59-12.41Z" transform="translate(0.5 0.5)"/><path class="cls-5" d="M48.93,35.07a.6.6,0,0,1-.31.24c-2,7.25-6,10.78-13.16,12.77a7.09,7.09,0,0,0-1-1.39C41,45.05,45,41.69,46.55,36.12H30.66V34.49H47.27l.24-.14Zm-2.26-5.14H33V28.35H46.67Z" transform="translate(0.5 0.5)"/><path class="cls-5" d="M70.43,29.74a.46.46,0,0,1-.31.26,37.23,37.23,0,0,1-4.8,8.26A86.8,86.8,0,0,1,74.1,46.4l-1.46,1.27a79,79,0,0,0-8.42-8.07A37.87,37.87,0,0,1,55,47.67a9.46,9.46,0,0,0-1.25-1.3A34.34,34.34,0,0,0,67.79,30.7H56V29.07H68.73L69,29Z" transform="translate(0.5 0.5)"/><path class="cls-5" d="M94.72,40a89.53,89.53,0,0,0-8.42-3.92v12H84.5V27.27l2.42.14c0,.27-.22.43-.62.51v7l.36-.5a84,84,0,0,1,9,4Z" transform="translate(0.5 0.5)"/><path class="cls-5" d="M114.42,37.73A2.47,2.47,0,1,1,112,35.26,2.46,2.46,0,0,1,114.42,37.73Z" transform="translate(0.5 0.5)"/><path class="cls-5" d="M145.53,36.7h-7.92l.41.12c0,.14-.22.26-.48.29-.63,4.34-2.6,8.66-7.42,11.09a10.92,10.92,0,0,0-1.3-1.18c4.73-2.35,6.39-6,6.94-10.32h-9.17V35.09h18.94ZM142,30.15H128.68V28.54H142Zm.31-3.53A17.07,17.07,0,0,1,145,30.41l-1,.65a15.87,15.87,0,0,0-2.61-3.79Zm2.83-.82a19.65,19.65,0,0,1,2.72,3.77l-1,.6a17.53,17.53,0,0,0-2.64-3.74Z" transform="translate(0.5 0.5)"/><path class="cls-5" d="M170.34,34.52h-5.13v1.6c0,4.59-1.42,9.24-7.71,12.08a8.67,8.67,0,0,0-1.22-1.2c6.1-2.64,7.22-6.92,7.22-10.85V34.52h-7.63v5.92h-1.7V34.52h-4.71V32.88h4.71V27.63l2.3.14a.63.63,0,0,1-.6.51v4.6h7.63V27.34l2.28.14c0,.2-.21.41-.57.46v4.94h5.13Zm-3.69-6.34a17,17,0,0,1,2.85,3.41l-.86.65a18.16,18.16,0,0,0-2.81-3.39Zm2.37-2a15.73,15.73,0,0,1,2.88,3.43l-.84.65a19.18,19.18,0,0,0-2.85-3.41Z" transform="translate(0.5 0.5)"/><path class="cls-5" d="M193.19,28.8a.54.54,0,0,1-.45.2.69.69,0,0,1-.24,0,59.43,59.43,0,0,1-6.84,5.74,5.54,5.54,0,0,1,.57.26.59.59,0,0,1-.53.31V48.17H184V35.84a68.87,68.87,0,0,1-9.14,5.35,8,8,0,0,0-1-1.32c6.55-3,13.73-8.16,17.59-12.41Z" transform="translate(0.5 0.5)"/><path class="cls-5" d="M199.67,29.21a29.35,29.35,0,0,1,7.15,3.27L205.91,34a30.43,30.43,0,0,0-7-3.34Zm-.1,16.64c8.53-2.65,14.19-7.42,17.07-14.07a8.92,8.92,0,0,0,1.56,1c-3,6.58-8.86,11.69-17,14.41a.82.82,0,0,1-.34.55Z" transform="translate(0.5 0.5)"/><path class="cls-6" d="M28.19,31.8a.54.54,0,0,1-.45.2.72.72,0,0,1-.24,0,59.43,59.43,0,0,1-6.84,5.74,5.54,5.54,0,0,1,.57.26.59.59,0,0,1-.53.31V51.17H19V38.84a68.87,68.87,0,0,1-9.14,5.35,8,8,0,0,0-1-1.32c6.55-3,13.73-8.16,17.59-12.41Z" transform="translate(0.5 0.5)"/><path class="cls-6" d="M51.93,38.07a.6.6,0,0,1-.31.24c-2,7.25-6,10.78-13.16,12.77a7.09,7.09,0,0,0-1-1.39C44,48.05,48,44.69,49.55,39.12H33.66V37.49H50.27l.24-.14Zm-2.26-5.14H36V31.35H49.67Z" transform="translate(0.5 0.5)"/><path class="cls-6" d="M73.43,32.74a.46.46,0,0,1-.31.26,37.23,37.23,0,0,1-4.8,8.26A86.8,86.8,0,0,1,77.1,49.4l-1.46,1.27a79,79,0,0,0-8.42-8.07A37.87,37.87,0,0,1,58,50.67a9.46,9.46,0,0,0-1.25-1.3A34.34,34.34,0,0,0,70.79,33.7H59V32.07H71.73L72,32Z" transform="translate(0.5 0.5)"/><path class="cls-6" d="M97.72,43a89.53,89.53,0,0,0-8.42-3.92v12H87.5V30.27l2.42.14c0,.27-.22.43-.62.51v7l.36-.5a84,84,0,0,1,9,4Z" transform="translate(0.5 0.5)"/><path class="cls-6" d="M117.42,40.73A2.47,2.47,0,1,1,115,38.26,2.46,2.46,0,0,1,117.42,40.73Z" transform="translate(0.5 0.5)"/><path class="cls-6" d="M148.53,39.7h-7.92l.41.12c0,.14-.22.26-.48.29-.63,4.34-2.6,8.66-7.42,11.09a10.92,10.92,0,0,0-1.3-1.18c4.73-2.35,6.39-6,6.94-10.32h-9.17V38.09h18.94ZM145,33.15H131.68V31.54H145Zm.31-3.53A17.07,17.07,0,0,1,148,33.41l-1,.65a15.87,15.87,0,0,0-2.61-3.79Zm2.83-.82a19.65,19.65,0,0,1,2.72,3.77l-1,.6a17.53,17.53,0,0,0-2.64-3.74Z" transform="translate(0.5 0.5)"/><path class="cls-6" d="M173.34,37.52h-5.13v1.6c0,4.59-1.42,9.24-7.71,12.08a8.67,8.67,0,0,0-1.22-1.2c6.1-2.64,7.22-6.92,7.22-10.85V37.52h-7.63v5.92h-1.7V37.52h-4.71V35.88h4.71V30.63l2.3.14a.63.63,0,0,1-.6.51v4.6h7.63V30.34l2.28.14c0,.2-.21.41-.57.46v4.94h5.13Zm-3.69-6.34a17,17,0,0,1,2.85,3.41l-.86.65a18.16,18.16,0,0,0-2.81-3.39Zm2.37-2a15.73,15.73,0,0,1,2.88,3.43l-.84.65a19.18,19.18,0,0,0-2.85-3.41Z" transform="translate(0.5 0.5)"/><path class="cls-6" d="M196.19,31.8a.54.54,0,0,1-.45.2.69.69,0,0,1-.24,0,59.43,59.43,0,0,1-6.84,5.74,5.54,5.54,0,0,1,.57.26.59.59,0,0,1-.53.31V51.17H187V38.84a68.87,68.87,0,0,1-9.14,5.35,8,8,0,0,0-1-1.32c6.55-3,13.73-8.16,17.59-12.41Z" transform="translate(0.5 0.5)"/><path class="cls-6" d="M202.67,32.21a29.35,29.35,0,0,1,7.15,3.27L208.91,37a30.43,30.43,0,0,0-7-3.34Zm-.1,16.64c8.53-2.65,14.19-7.42,17.07-14.07a8.92,8.92,0,0,0,1.56,1c-3,6.58-8.86,11.69-17,14.41a.82.82,0,0,1-.34.55Z" transform="translate(0.5 0.5)"/></svg>