<svg id="レイヤー_1" data-name="レイヤー 1" xmlns="http://www.w3.org/2000/svg" xmlns:xlink="http://www.w3.org/1999/xlink" viewBox="0 0 241 161"><defs><style>.cls-1{fill:#ad9d84;}.cls-2,.cls-4{fill:none;stroke-miterlimit:10;}.cls-2{stroke:#ad9d84;}.cls-3{fill:url(#名称未設定グラデーション_23);}.cls-4{stroke:#231815;}.cls-5{fill:#9d9fb0;}.cls-6{fill:#231815;}</style><linearGradient id="名称未設定グラデーション_23" x1="210.5" y1="-19.5" x2="20.5" y2="170.5" gradientUnits="userSpaceOnUse"><stop offset="0" stop-color="#d2e27b"/><stop offset="1" stop-color="#e83a23"/></linearGradient></defs><rect class="cls-1" x="10.5" y="10.5" width="230" height="150"/><rect class="cls-2" x="10.5" y="10.5" width="230" height="150"/><rect class="cls-3" x="0.5" y="0.5" width="230" height="150"/><rect class="cls-4" x="0.5" y="0.5" width="230" height="150"/><path class="cls-5" d="M29.69,68.14a1.69,1.69,0,0,1,1.27.57,2.34,2.34,0,0,1,.71,1.62,2.93,2.93,0,0,1-1.09,2,53.47,53.47,0,0,1-7.75,5.91,3.72,3.72,0,0,1-2.06.7,2.59,2.59,0,0,1-2.41-1.52,3.69,3.69,0,0,1-.43-1.73,2.7,2.7,0,0,1,1.12-2.3,6.17,6.17,0,0,1,1.29-.6,43.71,43.71,0,0,0,7.45-4A3.54,3.54,0,0,1,29.69,68.14ZM22.5,58.27a14.5,14.5,0,0,1,3.18.63C29.5,60,31.42,61.33,31.42,63A3.35,3.35,0,0,1,31,64.56a2.88,2.88,0,0,1-2.69,1.65,3.7,3.7,0,0,1-2.26-1,37.23,37.23,0,0,0-4-2.66c-1.22-.68-1.83-1.4-1.83-2.14a2.21,2.21,0,0,1,.33-1.11A2,2,0,0,1,22.5,58.27ZM34.31,98.79a3,3,0,0,1,2.47,1.28,2.74,2.74,0,0,1-1.2,4.33,50,50,0,0,1-9.17,3.09,19.33,19.33,0,0,1-3.4.68,2.3,2.3,0,0,1-2.26-1.44,2.24,2.24,0,0,1-.25-1,2.14,2.14,0,0,1,1-1.87,7.81,7.81,0,0,1,1.67-.68,47.26,47.26,0,0,0,9.45-3.93A3.27,3.27,0,0,1,34.31,98.79Zm3.91-21.65,13.16-.87.54,0a4.06,4.06,0,0,1,3.91,2.17,6.73,6.73,0,0,1,.66,3.12V96.24c0,1.77-1.1,2.66-3.3,2.66a3.14,3.14,0,0,1-2.82-1.17l-19,1a3.94,3.94,0,0,1-2.64.76c-2.1,0-3.15-.89-3.15-2.68v-17A2.77,2.77,0,0,1,27,77.3a3.46,3.46,0,0,1,1.88-.54,3.54,3.54,0,0,1,2.31.84l2.06-.14A2.3,2.3,0,0,1,32.71,76c0-.85.67-1.54,2-2.09A15.3,15.3,0,0,0,41,69.49a20,20,0,0,0,2.44-4.12,3.09,3.09,0,0,1,.74-1L40,64.7q-4,4.47-5.87,4.47a1.79,1.79,0,0,1-1.37-.73,1.88,1.88,0,0,1-.53-1.28,4,4,0,0,1,1.24-2.25,29.49,29.49,0,0,0,4.8-7.29,2.55,2.55,0,0,1,2.54-1.57,3.59,3.59,0,0,1,1.6.38,2.23,2.23,0,0,1,1.45,2A3.51,3.51,0,0,1,43.41,60l15-1,.33,0a3.42,3.42,0,0,1,2.13.6,2.3,2.3,0,0,1,1,2c0,1.16-1.15,2.89-3.45,5.21C57,68.28,55.9,69,55.19,69a1.91,1.91,0,0,1-1.32-.57,1.52,1.52,0,0,1-.51-1.17,4.53,4.53,0,0,1,1-2.06A2.41,2.41,0,0,0,55,64.05c0-.28-.31-.38-.94-.33l-6.63.46a2.52,2.52,0,0,1,1.42,2.3v.33c.59.54,1.29,1.11,2.08,1.71a41.42,41.42,0,0,0,11.64,5.91c1.23.39,1.85.91,1.85,1.54,0,.47-.34.8-1,1a23,23,0,0,1-5.61,1.11,4.48,4.48,0,0,1-2.42-.86,51.44,51.44,0,0,1-8.4-6.75A15.41,15.41,0,0,1,43.46,74,23.93,23.93,0,0,1,38.22,77.14ZM32.1,81.55v2L50,82.39v-.65c0-.88-.32-1.31-1-1.27h-.13ZM50,87.79v-1.9L32.1,87v1.84Zm0,3.66-17.88,1v2l17.88-1Zm-1.39,6.8a6.76,6.76,0,0,1,2.06.46q6.2,2.17,9.14,3.58a3.1,3.1,0,0,1,2.08,2.82,3,3,0,0,1-.66,1.87,3,3,0,0,1-2.49,1.13A5.94,5.94,0,0,1,55.78,107q-2.09-1.29-6.05-3.38c-1.17-.62-1.84-1-2-1.09a2.3,2.3,0,0,1-1.21-2.09,2.46,2.46,0,0,1,.43-1.38A1.82,1.82,0,0,1,48.59,98.25Z" transform="translate(0.5 0.5)"/><path class="cls-5" d="M83.89,83.1q6.44,3.9,6.43,6.37a2.66,2.66,0,0,1-.74,1.87,2.42,2.42,0,0,1-1.88.81,3,3,0,0,1-2.41-1.49l-1.4-1.92v15.34a2.44,2.44,0,0,1-.63,1.73,2.92,2.92,0,0,1-2.29.92,2.66,2.66,0,0,1-2.66-1.49,2.7,2.7,0,0,1-.23-1.16V90.39A52.84,52.84,0,0,1,72.85,98a3.17,3.17,0,0,1-2.27,1.33,1.88,1.88,0,0,1-1.39-.63,2.3,2.3,0,0,1-.69-1.62,6.26,6.26,0,0,1,1.37-2.93,81.23,81.23,0,0,0,7-12.12l-5.08.63a2.36,2.36,0,0,1-.38,0,2.24,2.24,0,0,1-1.73-.75,3.27,3.27,0,0,1-.71-2.2c0-1.72.72-2.66,2.16-2.85l7-.89V60.22a2.32,2.32,0,0,1,1.22-2.16A3.28,3.28,0,0,1,81,57.62a3.18,3.18,0,0,1,2.11.73,2.37,2.37,0,0,1,.81,1.87v15l4.63-.6.35,0a2.19,2.19,0,0,1,1.81.86,3.39,3.39,0,0,1,.66,2.2c0,1.7-.72,2.63-2.14,2.79l-5.31.68Zm-12-20.38a2.5,2.5,0,0,1,2,1.3,29.29,29.29,0,0,1,3,5.53A6.55,6.55,0,0,1,77.49,72a2.4,2.4,0,0,1-1.29,2.25,3.19,3.19,0,0,1-1.6.44c-1.36,0-2.25-.89-2.67-2.66a56.08,56.08,0,0,0-1.8-5.77,4.14,4.14,0,0,1-.31-1.49,1.9,1.9,0,0,1,.84-1.68A2.19,2.19,0,0,1,71.91,62.72Zm17.83-1.79a3,3,0,0,1,1.29.3,2.53,2.53,0,0,1,1.6,2.52,4.8,4.8,0,0,1-.58,2A45.94,45.94,0,0,1,88.54,72a2.69,2.69,0,0,1-2.06,1.36,2,2,0,0,1-1-.3,2,2,0,0,1-1-1.85A5.13,5.13,0,0,1,85,69.33a50.9,50.9,0,0,0,2.1-5.77C87.59,61.81,88.47,60.93,89.74,60.93Zm20.6,23.44,3.68-.78a2.81,2.81,0,0,1,.66-.08,2.34,2.34,0,0,1,2.36,1.7,4.46,4.46,0,0,1,.25,1.57c0,1.72-.71,2.72-2.13,3l-4.82,1V105a2.6,2.6,0,0,1-.61,1.74,3.09,3.09,0,0,1-2.47,1,2.84,2.84,0,0,1-2.72-1.46,2.78,2.78,0,0,1-.3-1.31V92.12L94.1,94.29a2.81,2.81,0,0,1-.71.08A2.37,2.37,0,0,1,91,92.45a5,5,0,0,1-.18-1.38,2.62,2.62,0,0,1,2.11-2.93l11.33-2.44V60.33a2.51,2.51,0,0,1,1.12-2.22,3.37,3.37,0,0,1,1.9-.57,3,3,0,0,1,2.44,1,2.56,2.56,0,0,1,.64,1.76ZM94.23,74.94a10.6,10.6,0,0,1,4.57,1.68,14.24,14.24,0,0,1,2.67,1.84,3,3,0,0,1,1,2.23,3,3,0,0,1-.66,1.89,2.9,2.9,0,0,1-2.39,1.28,3,3,0,0,1-2.16-1.28,35.41,35.41,0,0,0-3.81-3.38A2.88,2.88,0,0,1,92.22,77a2.06,2.06,0,0,1,.39-1.22A1.89,1.89,0,0,1,94.23,74.94Zm1.2-10.76a8.52,8.52,0,0,1,2.71.87,22.14,22.14,0,0,1,4.17,2.3,3,3,0,0,1,1.29,2.52,3.57,3.57,0,0,1-.63,1.95A2.63,2.63,0,0,1,98.4,72a27.19,27.19,0,0,0-3.94-3.55,2.66,2.66,0,0,1-1.14-2.06,2.23,2.23,0,0,1,.38-1.25A1.94,1.94,0,0,1,95.43,64.18Z" transform="translate(0.5 0.5)"/><path class="cls-5" d="M138.07,71.88l-14.83,1.43-.38,0a1.91,1.91,0,0,1-1.5-.68,3,3,0,0,1-.64-2c0-1.59.68-2.45,2-2.57l14.73-1.47h.28a2.13,2.13,0,0,1,2.11,1.55,3.69,3.69,0,0,1,.22,1.27C140.1,70.93,139.43,71.75,138.07,71.88Zm.43,27.72a2.47,2.47,0,0,1,1,2.17c0,1.5-.66,2.32-2,2.47l-8.31.89c-.29,1.27-1.19,1.9-2.72,1.9s-2.35-.82-2.48-2.47l-1-12c0-.11,0-.21,0-.3A2.22,2.22,0,0,1,124,90.15a3,3,0,0,1,1.58-.41,2.74,2.74,0,0,1,2,.78l7.27-.84c.35,0,.7-.05,1-.05q3.56,0,3.55,3.39a9.65,9.65,0,0,1-.12,1.38Zm-2.31-20-10,1-.23,0a1.94,1.94,0,0,1-2-1.41,3.1,3.1,0,0,1-.18-1.08c0-1.48.64-2.29,1.93-2.41l10-1H136a2.19,2.19,0,0,1,1,.25,2.24,2.24,0,0,1,1.19,2.19A2.14,2.14,0,0,1,136.19,79.55Zm.1,7.26-10,1.06H126a1.82,1.82,0,0,1-1.65-1,2.9,2.9,0,0,1-.41-1.55c0-1.44.64-2.23,1.93-2.36L135.89,82l.23,0a2,2,0,0,1,1.8,1,2.75,2.75,0,0,1,.36,1.44,2.21,2.21,0,0,1-1.15,2.11A2,2,0,0,1,136.29,86.81Zm-8.56-29.43a13.26,13.26,0,0,1,3.41.84,18.76,18.76,0,0,1,4,1.79,2.94,2.94,0,0,1,1.27,4.09,2.53,2.53,0,0,1-2.34,1.49,4.31,4.31,0,0,1-2.26-.89c-.7-.47-2.32-1.49-4.88-3.07a2.44,2.44,0,0,1-1.29-2.14A1.84,1.84,0,0,1,127.73,57.38Zm6,42.39.38-4.31v-.22a.59.59,0,0,0-.66-.68,1.42,1.42,0,0,0-.33,0l-4.6.54.38,5.18Zm22.27-26,11.08-.9.18,0a1.94,1.94,0,0,1,1.27.33,2.2,2.2,0,0,1,.84,1.92c0,1.52-.67,2.33-2,2.44L141,79.6h-.31a1.85,1.85,0,0,1-1.39-.59,2.34,2.34,0,0,1-.59-1.66,2.05,2.05,0,0,1,2-2.36l9.48-.75V72l-6.3.49-.25,0c-1.22,0-1.83-.65-1.83-1.93a1.85,1.85,0,0,1,1.88-2.09l6.5-.56V65.92l-7.44.62-.26,0a1.82,1.82,0,0,1-2-2.09,2,2,0,0,1,2-2.33l7.75-.68V58.73a2.1,2.1,0,0,1,1.19-2,3.64,3.64,0,0,1,3.71.21,2.11,2.11,0,0,1,.86,1.79V61l7.75-.68.26,0a1.81,1.81,0,0,1,1.37.49,2.11,2.11,0,0,1,.61,1.65,2,2,0,0,1-2,2.33l-8,.68v2.09l6.51-.54.17,0A1.66,1.66,0,0,1,164.49,68a2.37,2.37,0,0,1,.15.87A1.88,1.88,0,0,1,162.76,71l-6.76.54Zm3.18,23.47L148.31,98v7c0,1.67-.87,2.5-2.59,2.5S143,106.69,143,105V83c0-1.6.91-2.41,2.74-2.41a2.66,2.66,0,0,1,2.14.84l12.6-1.11h.43a3.37,3.37,0,0,1,3.2,1.76,4.48,4.48,0,0,1,.48,2.14v19q0,4.61-3.61,4.6a11.83,11.83,0,0,1-4.62-1.32c-2.34-1.09-3.5-2.1-3.5-3a1.39,1.39,0,0,1,1.57-1.57,5,5,0,0,1,1.12.16,11.82,11.82,0,0,0,2.61.27c.68,0,1-.42,1-1.27Zm0-10.33V85.43c0-.56-.25-.82-.74-.79l-10.13.87v2.28Zm0,3.9-10.87.84V94l10.87-.68Z" transform="translate(0.5 0.5)"/><path class="cls-5" d="M188.82,88.93a1.91,1.91,0,0,1,1.75,1,2.56,2.56,0,0,1,.41,1.43,3.24,3.24,0,0,1-1.22,2.31,57.15,57.15,0,0,1-8.23,6.34,6.43,6.43,0,0,1-3.07,1.22A2.7,2.7,0,0,1,176,99.74a4.27,4.27,0,0,1-.58-2.09,2.91,2.91,0,0,1,1.06-2.3,8,8,0,0,1,1.7-.92,62.18,62.18,0,0,0,8-4.45A5.43,5.43,0,0,1,188.82,88.93Zm11.41-6.32a74.6,74.6,0,0,0,9.37-7.13,3.91,3.91,0,0,1,2.64-1.19,3,3,0,0,1,2.16.95,3.42,3.42,0,0,1,1.07,2.47,3.2,3.2,0,0,1-1.68,2.76A79.92,79.92,0,0,1,203.38,86a63.12,63.12,0,0,0,15.74,11.76c1.21.63,1.81,1.26,1.81,1.9,0,.48-.4.89-1.2,1.22a14.45,14.45,0,0,1-5.25,1.38,3.86,3.86,0,0,1-2.34-.76,67.87,67.87,0,0,1-11.91-12.28V103a5.43,5.43,0,0,1-.79,3.08,3.73,3.73,0,0,1-3.28,1.58,15.67,15.67,0,0,1-5.66-1.6,26.81,26.81,0,0,1-3-1.55,2.49,2.49,0,0,1-1.45-2,2,2,0,0,1,.21-.87,1.87,1.87,0,0,1,1.88-1.11,6.29,6.29,0,0,1,1.22.16,18.42,18.42,0,0,0,3.42.55c.77,0,1.15-.5,1.15-1.49V74.62l-13.64.92a2.41,2.41,0,0,1-1.91-.63,3.31,3.31,0,0,1-.91-2.54c0-1.92.8-2.93,2.41-3l14.05-1V60a2.58,2.58,0,0,1,1.22-2.33,3.54,3.54,0,0,1,4.37.41,2.71,2.71,0,0,1,.71,1.92v7.92L212.77,67l.21,0a2.17,2.17,0,0,1,2.08,1,3.45,3.45,0,0,1,.56,2c0,2.08-.81,3.18-2.44,3.28l-13,.87Zm-19.08-5.23a5.52,5.52,0,0,1,1.68.35q7.47,2.65,7.46,5.91a3.28,3.28,0,0,1-.63,1.87,2.8,2.8,0,0,1-2.44,1.38,3.81,3.81,0,0,1-2.61-1.41,40.43,40.43,0,0,0-4.32-3.79A2.78,2.78,0,0,1,179,79.63a2.46,2.46,0,0,1,.43-1.33A1.94,1.94,0,0,1,181.15,77.38Zm26.14-20.06q2,0,5.05,2.06A11.83,11.83,0,0,1,214,60.71a3.2,3.2,0,0,1,.89,2.33,2.94,2.94,0,0,1-.84,2.12,3.16,3.16,0,0,1-2.33,1,2.28,2.28,0,0,1-1.93-1,22,22,0,0,0-3.84-4.26,2,2,0,0,1-.71-1.52,2.23,2.23,0,0,1,.41-1.27A1.85,1.85,0,0,1,207.29,57.32Z" transform="translate(0.5 0.5)"/><path class="cls-6" d="M24.69,63.14a1.69,1.69,0,0,1,1.27.57,2.34,2.34,0,0,1,.71,1.62,2.93,2.93,0,0,1-1.09,2,53.47,53.47,0,0,1-7.75,5.91,3.72,3.72,0,0,1-2.06.7,2.59,2.59,0,0,1-2.41-1.52,3.69,3.69,0,0,1-.43-1.73,2.7,2.7,0,0,1,1.12-2.3,6.17,6.17,0,0,1,1.29-.6,43.71,43.71,0,0,0,7.45-4A3.54,3.54,0,0,1,24.69,63.14ZM17.5,53.27a14.5,14.5,0,0,1,3.18.63C24.5,55,26.42,56.33,26.42,58A3.35,3.35,0,0,1,26,59.56a2.88,2.88,0,0,1-2.69,1.65,3.7,3.7,0,0,1-2.26-1,37.23,37.23,0,0,0-4-2.66c-1.22-.68-1.83-1.4-1.83-2.14a2.21,2.21,0,0,1,.33-1.11A2,2,0,0,1,17.5,53.27ZM29.31,93.79a3,3,0,0,1,2.47,1.28,2.74,2.74,0,0,1-1.2,4.33,50,50,0,0,1-9.17,3.09,19.33,19.33,0,0,1-3.4.68,2.3,2.3,0,0,1-2.26-1.44,2.24,2.24,0,0,1-.25-1,2.14,2.14,0,0,1,1-1.87,7.81,7.81,0,0,1,1.67-.68,47.26,47.26,0,0,0,9.45-3.93A3.27,3.27,0,0,1,29.31,93.79Zm3.91-21.65,13.16-.87.54,0a4.06,4.06,0,0,1,3.91,2.17,6.73,6.73,0,0,1,.66,3.12V91.24c0,1.77-1.1,2.66-3.3,2.66a3.14,3.14,0,0,1-2.82-1.17l-19,1a3.94,3.94,0,0,1-2.64.76c-2.1,0-3.15-.89-3.15-2.68v-17A2.77,2.77,0,0,1,22,72.3a3.46,3.46,0,0,1,1.88-.54,3.54,3.54,0,0,1,2.31.84l2.06-.14A2.3,2.3,0,0,1,27.71,71c0-.85.67-1.54,2-2.09A15.3,15.3,0,0,0,36,64.49a20,20,0,0,0,2.44-4.12,3.09,3.09,0,0,1,.74-1L35,59.7q-4,4.47-5.87,4.47a1.79,1.79,0,0,1-1.37-.73,1.88,1.88,0,0,1-.53-1.28,4,4,0,0,1,1.24-2.25,29.49,29.49,0,0,0,4.8-7.29,2.55,2.55,0,0,1,2.54-1.57,3.59,3.59,0,0,1,1.6.38,2.23,2.23,0,0,1,1.45,2A3.51,3.51,0,0,1,38.41,55l15-1,.33,0a3.42,3.42,0,0,1,2.13.6,2.3,2.3,0,0,1,1,2c0,1.16-1.15,2.89-3.45,5.21C52,63.28,50.9,64,50.19,64a1.91,1.91,0,0,1-1.32-.57,1.52,1.52,0,0,1-.51-1.17,4.53,4.53,0,0,1,1-2.06A2.41,2.41,0,0,0,50,59.05c0-.28-.31-.38-.94-.33l-6.63.46a2.52,2.52,0,0,1,1.42,2.3v.33c.59.54,1.29,1.11,2.08,1.71a41.42,41.42,0,0,0,11.64,5.91c1.23.39,1.85.91,1.85,1.54,0,.47-.34.8-1,1a23,23,0,0,1-5.61,1.11,4.48,4.48,0,0,1-2.42-.86,51.44,51.44,0,0,1-8.4-6.75A15.41,15.41,0,0,1,38.46,69,23.93,23.93,0,0,1,33.22,72.14ZM27.1,76.55v2L45,77.39v-.65c0-.88-.32-1.31-1-1.27h-.13ZM45,82.79v-1.9L27.1,82v1.84Zm0,3.66-17.88,1v2l17.88-1Zm-1.39,6.8a6.76,6.76,0,0,1,2.06.46q6.2,2.17,9.14,3.58a3.1,3.1,0,0,1,2.08,2.82,3,3,0,0,1-.66,1.87,3,3,0,0,1-2.49,1.13A5.94,5.94,0,0,1,50.78,102q-2.09-1.29-6.05-3.38c-1.17-.62-1.84-1-2-1.09a2.3,2.3,0,0,1-1.21-2.09,2.46,2.46,0,0,1,.43-1.38A1.82,1.82,0,0,1,43.59,93.25Z" transform="translate(0.5 0.5)"/><path class="cls-6" d="M78.89,78.1q6.44,3.9,6.43,6.37a2.66,2.66,0,0,1-.74,1.87,2.42,2.42,0,0,1-1.88.81,3,3,0,0,1-2.41-1.49l-1.4-1.92V99.08a2.44,2.44,0,0,1-.63,1.73,2.92,2.92,0,0,1-2.29.92,2.66,2.66,0,0,1-2.66-1.49,2.7,2.7,0,0,1-.23-1.16V85.39A52.84,52.84,0,0,1,67.85,93a3.17,3.17,0,0,1-2.27,1.33,1.88,1.88,0,0,1-1.39-.63,2.3,2.3,0,0,1-.69-1.62,6.26,6.26,0,0,1,1.37-2.93,81.23,81.23,0,0,0,7-12.12l-5.08.63a2.36,2.36,0,0,1-.38,0,2.24,2.24,0,0,1-1.73-.75,3.27,3.27,0,0,1-.71-2.2c0-1.72.72-2.66,2.16-2.85l7-.89V55.22a2.32,2.32,0,0,1,1.22-2.16A3.28,3.28,0,0,1,76,52.62a3.18,3.18,0,0,1,2.11.73,2.37,2.37,0,0,1,.81,1.87v15l4.63-.6.35,0a2.19,2.19,0,0,1,1.81.86,3.39,3.39,0,0,1,.66,2.2c0,1.7-.72,2.63-2.14,2.79l-5.31.68Zm-12-20.38a2.5,2.5,0,0,1,2,1.3,29.29,29.29,0,0,1,3,5.53A6.55,6.55,0,0,1,72.49,67a2.4,2.4,0,0,1-1.29,2.25,3.19,3.19,0,0,1-1.6.44c-1.36,0-2.25-.89-2.67-2.66a56.08,56.08,0,0,0-1.8-5.77,4.14,4.14,0,0,1-.31-1.49,1.9,1.9,0,0,1,.84-1.68A2.19,2.19,0,0,1,66.91,57.72Zm17.83-1.79a3,3,0,0,1,1.29.3,2.53,2.53,0,0,1,1.6,2.52,4.8,4.8,0,0,1-.58,2A45.94,45.94,0,0,1,83.54,67a2.69,2.69,0,0,1-2.06,1.36,2,2,0,0,1-1-.3,2,2,0,0,1-1-1.85A5.13,5.13,0,0,1,80,64.33a50.9,50.9,0,0,0,2.1-5.77C82.59,56.81,83.47,55.93,84.74,55.93Zm20.6,23.44,3.68-.78a2.81,2.81,0,0,1,.66-.08,2.34,2.34,0,0,1,2.36,1.7,4.46,4.46,0,0,1,.25,1.57c0,1.72-.71,2.72-2.13,3l-4.82,1V100a2.6,2.6,0,0,1-.61,1.74,3.09,3.09,0,0,1-2.47,1,2.84,2.84,0,0,1-2.72-1.46,2.78,2.78,0,0,1-.3-1.31V87.12L89.1,89.29a2.81,2.81,0,0,1-.71.08A2.37,2.37,0,0,1,86,87.45a5,5,0,0,1-.18-1.38,2.62,2.62,0,0,1,2.11-2.93L99.24,80.7V55.33a2.51,2.51,0,0,1,1.12-2.22,3.37,3.37,0,0,1,1.9-.57,3,3,0,0,1,2.44,1,2.56,2.56,0,0,1,.64,1.76ZM89.23,69.94a10.6,10.6,0,0,1,4.57,1.68,14.24,14.24,0,0,1,2.67,1.84,3,3,0,0,1,1,2.23,3,3,0,0,1-.66,1.89,2.9,2.9,0,0,1-2.39,1.28,3,3,0,0,1-2.16-1.28,35.41,35.41,0,0,0-3.81-3.38A2.88,2.88,0,0,1,87.22,72a2.06,2.06,0,0,1,.39-1.22A1.89,1.89,0,0,1,89.23,69.94Zm1.2-10.76a8.52,8.52,0,0,1,2.71.87,22.14,22.14,0,0,1,4.17,2.3,3,3,0,0,1,1.29,2.52A3.57,3.57,0,0,1,98,66.82,2.63,2.63,0,0,1,93.4,67a27.19,27.19,0,0,0-3.94-3.55,2.66,2.66,0,0,1-1.14-2.06,2.23,2.23,0,0,1,.38-1.25A1.94,1.94,0,0,1,90.43,59.18Z" transform="translate(0.5 0.5)"/><path class="cls-6" d="M133.07,66.88l-14.83,1.43-.38,0a1.91,1.91,0,0,1-1.5-.68,3,3,0,0,1-.64-2c0-1.59.68-2.45,2-2.57l14.73-1.47h.28a2.13,2.13,0,0,1,2.11,1.55,3.69,3.69,0,0,1,.22,1.27C135.1,65.93,134.43,66.75,133.07,66.88Zm.43,27.72a2.47,2.47,0,0,1,1,2.17c0,1.5-.66,2.32-2,2.47l-8.31.89c-.29,1.27-1.19,1.9-2.72,1.9s-2.35-.82-2.48-2.47l-1-12c0-.11,0-.21,0-.3A2.22,2.22,0,0,1,119,85.15a3,3,0,0,1,1.58-.41,2.74,2.74,0,0,1,2,.78l7.27-.84c.35,0,.7-.05,1-.05q3.56,0,3.55,3.39a9.65,9.65,0,0,1-.12,1.38Zm-2.31-20-10,1-.23,0a1.94,1.94,0,0,1-2-1.41,3.1,3.1,0,0,1-.18-1.08c0-1.48.64-2.29,1.93-2.41l10-1H131a2.19,2.19,0,0,1,1,.25,2.24,2.24,0,0,1,1.19,2.19A2.14,2.14,0,0,1,131.19,74.55Zm.1,7.26-10,1.06H121a1.82,1.82,0,0,1-1.65-1,2.9,2.9,0,0,1-.41-1.55c0-1.44.64-2.23,1.93-2.36L130.89,77l.23,0a2,2,0,0,1,1.8,1,2.75,2.75,0,0,1,.36,1.44,2.21,2.21,0,0,1-1.15,2.11A2,2,0,0,1,131.29,81.81Zm-8.56-29.43a13.26,13.26,0,0,1,3.41.84,18.76,18.76,0,0,1,4,1.79,2.94,2.94,0,0,1,1.27,4.09,2.53,2.53,0,0,1-2.34,1.49,4.31,4.31,0,0,1-2.26-.89c-.7-.47-2.32-1.49-4.88-3.07a2.44,2.44,0,0,1-1.29-2.14A1.84,1.84,0,0,1,122.73,52.38Zm6,42.39.38-4.31v-.22a.59.59,0,0,0-.66-.68,1.42,1.42,0,0,0-.33,0l-4.6.54.38,5.18Zm22.27-26,11.08-.9.18,0a1.94,1.94,0,0,1,1.27.33,2.2,2.2,0,0,1,.84,1.92c0,1.52-.67,2.33-2,2.44L136,74.6h-.31a1.85,1.85,0,0,1-1.39-.59,2.34,2.34,0,0,1-.59-1.66,2.05,2.05,0,0,1,2-2.36l9.48-.75V67l-6.3.49-.25,0c-1.22,0-1.83-.65-1.83-1.93a1.85,1.85,0,0,1,1.88-2.09l6.5-.56V60.92l-7.44.62-.26,0a1.82,1.82,0,0,1-2-2.09,2,2,0,0,1,2-2.33l7.75-.68V53.73a2.1,2.1,0,0,1,1.19-2,3.64,3.64,0,0,1,3.71.21,2.11,2.11,0,0,1,.86,1.79V56l7.75-.68.26,0a1.81,1.81,0,0,1,1.37.49,2.11,2.11,0,0,1,.61,1.65,2,2,0,0,1-2,2.33l-8,.68v2.09l6.51-.54.17,0A1.66,1.66,0,0,1,159.49,63a2.37,2.37,0,0,1,.15.87A1.88,1.88,0,0,1,157.76,66l-6.76.54Zm3.18,23.47L143.31,93v7c0,1.67-.87,2.5-2.59,2.5S138,101.69,138,100V78c0-1.6.91-2.41,2.74-2.41a2.66,2.66,0,0,1,2.14.84l12.6-1.11h.43a3.37,3.37,0,0,1,3.2,1.76,4.48,4.48,0,0,1,.48,2.14v19q0,4.61-3.61,4.6a11.83,11.83,0,0,1-4.62-1.32c-2.34-1.09-3.5-2.1-3.5-3a1.39,1.39,0,0,1,1.57-1.57,5,5,0,0,1,1.12.16,11.82,11.82,0,0,0,2.61.27c.68,0,1-.42,1-1.27Zm0-10.33V80.43c0-.56-.25-.82-.74-.79l-10.13.87v2.28Zm0,3.9-10.87.84V89l10.87-.68Z" transform="translate(0.5 0.5)"/><path class="cls-6" d="M183.82,83.93a1.91,1.91,0,0,1,1.75,1,2.56,2.56,0,0,1,.41,1.43,3.24,3.24,0,0,1-1.22,2.31A57.15,57.15,0,0,1,176.53,95a6.43,6.43,0,0,1-3.07,1.22A2.7,2.7,0,0,1,171,94.74a4.27,4.27,0,0,1-.58-2.09,2.91,2.91,0,0,1,1.06-2.3,8,8,0,0,1,1.7-.92,62.18,62.18,0,0,0,8-4.45A5.43,5.43,0,0,1,183.82,83.93Zm11.41-6.32a74.6,74.6,0,0,0,9.37-7.13,3.91,3.91,0,0,1,2.64-1.19,3,3,0,0,1,2.16.95,3.42,3.42,0,0,1,1.07,2.47,3.2,3.2,0,0,1-1.68,2.76A79.92,79.92,0,0,1,198.38,81a63.12,63.12,0,0,0,15.74,11.76c1.21.63,1.81,1.26,1.81,1.9,0,.48-.4.89-1.2,1.22a14.45,14.45,0,0,1-5.25,1.38,3.86,3.86,0,0,1-2.34-.76,67.87,67.87,0,0,1-11.91-12.28V98a5.43,5.43,0,0,1-.79,3.08,3.73,3.73,0,0,1-3.28,1.58,15.67,15.67,0,0,1-5.66-1.6,26.81,26.81,0,0,1-3-1.55,2.49,2.49,0,0,1-1.45-2,2,2,0,0,1,.21-.87,1.87,1.87,0,0,1,1.88-1.11,6.29,6.29,0,0,1,1.22.16,18.42,18.42,0,0,0,3.42.55c.77,0,1.15-.5,1.15-1.49V69.62l-13.64.92a2.41,2.41,0,0,1-1.91-.63,3.31,3.31,0,0,1-.91-2.54c0-1.92.8-2.93,2.41-3l14.05-1V55a2.58,2.58,0,0,1,1.22-2.33,3.54,3.54,0,0,1,4.37.41,2.71,2.71,0,0,1,.71,1.92v7.92L207.77,62l.21,0a2.17,2.17,0,0,1,2.08,1,3.45,3.45,0,0,1,.56,2c0,2.08-.81,3.18-2.44,3.28l-13,.87Zm-19.08-5.23a5.52,5.52,0,0,1,1.68.35q7.47,2.65,7.46,5.91a3.28,3.28,0,0,1-.63,1.87,2.8,2.8,0,0,1-2.44,1.38,3.81,3.81,0,0,1-2.61-1.41,40.43,40.43,0,0,0-4.32-3.79A2.78,2.78,0,0,1,174,74.63a2.46,2.46,0,0,1,.43-1.33A1.94,1.94,0,0,1,176.15,72.38Zm26.14-20.06q2,0,5.05,2.06A11.83,11.83,0,0,1,209,55.71a3.2,3.2,0,0,1,.89,2.33,2.94,2.94,0,0,1-.84,2.12,3.16,3.16,0,0,1-2.33,1,2.28,2.28,0,0,1-1.93-1,22,22,0,0,0-3.84-4.26,2,2,0,0,1-.71-1.52,2.23,2.23,0,0,1,.41-1.27A1.85,1.85,0,0,1,202.29,52.32Z" transform="translate(0.5 0.5)"/></svg>